HIERARCHY
ROOT hip
{
	OFFSET 0.000000 0.000000 0.000000 
	CHANNELS 6 Xposition Yposition Zposition Xrotation Zrotation Yrotation
	JOINT abdomen
	{
		OFFSET 0.000000 3.402643 0.000000 
		CHANNELS 3 Xrotation Zrotation Yrotation
		JOINT chest
		{
			OFFSET 0.000000 8.438565 -0.680529 
			CHANNELS 3 Xrotation Zrotation Yrotation
			JOINT neck
			{
				OFFSET 0.000000 10.207942 -0.272212 
				CHANNELS 3 Xrotation Zrotation Yrotation
				JOINT head
				{
					OFFSET 0.000000 3.130431 0.000000 
					CHANNELS 3 Xrotation Zrotation Yrotation
					End Site
					{
						OFFSET 0.000000 3.130435 0.000000 
					}
				}
			}
			JOINT lCollar
			{
				OFFSET 3.470700 6.669187 -0.816635 
				CHANNELS 3 Yrotation Zrotation Xrotation
				JOINT lShldr
				{
					OFFSET 3.198488 0.000000 0.000000 
					CHANNELS 3 Zrotation Yrotation Xrotation
					JOINT lForeArm
					{
						OFFSET 10.139888 0.000000 0.000000 
						CHANNELS 3 Yrotation Zrotation Xrotation
						JOINT lHand
						{
							OFFSET 8.370511 0.000000 0.000000 
							CHANNELS 3 Zrotation Yrotation Xrotation
							End Site
							{
								OFFSET 4.083176 0.000000 0.000000 
							}
						}
					}
				}
			}
			JOINT rCollar
			{
				OFFSET -3.470700 6.669187 -0.816635 
				CHANNELS 3 Yrotation Zrotation Xrotation
				JOINT rShldr
				{
					OFFSET -3.198488 0.000000 0.000000 
					CHANNELS 3 Zrotation Yrotation Xrotation
					JOINT rForeArm
					{
						OFFSET -10.139888 0.000000 0.000000 
						CHANNELS 3 Yrotation Zrotation Xrotation
						JOINT rHand
						{
							OFFSET -8.370511 0.000000 0.000000 
							CHANNELS 3 Zrotation Yrotation Xrotation
							End Site
							{
								OFFSET -4.083176 0.000000 0.000000 
							}
						}
					}
				}
			}
		}
	}
	JOINT lThigh
	{
		OFFSET 5.308129 -1.633274 1.361059 
		CHANNELS 3 Xrotation Zrotation Yrotation
		JOINT lShin
		{
			OFFSET -2.041588 -20.007561 0.000000 
			CHANNELS 3 Xrotation Zrotation Yrotation
			JOINT lFoot
			{
				OFFSET 0.000000 -19.190928 -1.224953 
				CHANNELS 3 Xrotation Yrotation Zrotation
				End Site
				{
					OFFSET 0.000000 -2.449906 4.627600 
				}
			}
		}
	}
	JOINT rThigh
	{
		OFFSET -5.308129 -1.633274 1.361059 
		CHANNELS 3 Xrotation Zrotation Yrotation
		JOINT rShin
		{
			OFFSET 2.041588 -20.007561 0.000000 
			CHANNELS 3 Xrotation Zrotation Yrotation
			JOINT rFoot
			{
				OFFSET 0.000000 -19.190928 -1.224953 
				CHANNELS 3 Xrotation Yrotation Zrotation
				End Site
				{
					OFFSET 0.000000 -2.449906 4.627600 
				}
			}
		}
	}
}
MOTION
Frames: 18
Frame Time: 0.033333
-0.289860 49.663929 -0.914098 6.777288 0.280488 -7.939549 0.000000 0.000000 0.000000 -3.448529 -0.097032 6.484383 34.372654 5.029268 0.196273 -27.172241 -0.732401 -0.429777 -24.030918 13.446905 24.994785 -93.173355 -6.288016 0.014366 -46.106159 14.482201 85.208412 -19.627762 -19.400579 -50.581585 -3.664972 -11.777923 23.789616 77.067596 11.970362 74.347954 22.282042 -42.386150 31.536079 40.116425 5.478730 -79.809242 -6.234175 3.781063 18.177946 21.739052 9.625070 1.535052 -1.800457 -19.681372 16.704947 -2.135258 -3.802926 0.042812 17.495852 -0.744888 0.442153 6.269157 -3.408964 27.751480 
-0.301726 49.668377 -0.902539 6.771698 0.251490 -7.910208 0.000000 0.000000 0.000000 -3.513579 -0.067922 6.484370 34.655895 5.039033 0.196273 -27.163473 -0.712876 -0.361422 -24.009146 13.175344 24.991842 -92.868568 -6.255311 -0.147527 -46.038445 14.396207 85.304810 -19.578552 -19.440247 -50.588467 -3.662289 -11.601294 23.816795 76.773720 11.950624 74.183571 22.565132 -42.372597 31.886539 40.269402 5.694555 -79.790047 -6.207848 3.833886 18.188246 21.728697 9.601068 1.549981 -1.776056 -19.742987 16.684912 -1.988069 -3.742101 0.080773 17.290680 -0.781031 0.391725 6.405805 -3.500975 27.931173 
-0.318990 49.662338 -0.888340 6.392283 0.096652 -8.222662 0.000000 0.000000 0.000000 -3.027986 0.164938 6.533232 34.915958 4.687480 0.167057 -27.253630 -0.654293 -0.195411 -23.687754 12.787350 24.987738 -92.445152 -6.055805 -0.358073 -46.068832 14.295253 84.955925 -19.472368 -19.448912 -50.614685 -3.258881 -11.586180 23.908056 76.760681 12.072306 74.146286 22.528625 -42.574066 32.099766 40.449055 5.917903 -79.790787 -5.808704 4.118338 18.340292 21.954302 9.488564 1.462333 -1.871727 -19.570677 16.506208 -1.628854 -3.501617 0.155486 17.296143 -0.910594 0.325771 6.396592 -3.276050 27.855543 
-0.335123 49.645458 -0.849251 5.424930 -0.096532 -8.701193 0.000000 0.000000 0.000000 -1.801059 0.388065 6.562680 34.959633 4.130851 0.117587 -27.343607 -0.419922 -0.019602 -23.212452 12.532419 24.995184 -92.238152 -5.872116 -0.464972 -46.184830 14.335218 84.441643 -19.506800 -19.508509 -50.562290 -2.615144 -11.787180 24.034275 76.989952 12.338842 74.221611 22.305920 -43.011650 32.341820 40.681995 6.285419 -79.760651 -4.705711 4.411397 18.440165 22.213366 9.242222 1.409650 -2.011575 -19.279648 16.329964 -0.662373 -3.314436 0.166831 17.432936 -1.047343 0.370023 6.222859 -2.826559 27.487783 
-0.338074 49.617962 -0.825345 4.681768 -0.086801 -9.033223 0.000000 0.000000 0.000000 -0.846386 0.368677 6.543147 34.879482 3.769526 0.098087 -27.187685 -0.107422 0.097656 -22.855642 12.536960 24.990948 -92.296661 -5.774231 -0.443352 -46.385406 14.428140 84.093765 -19.671608 -19.538349 -50.460007 -2.101300 -12.062320 24.137386 77.272408 12.556931 74.331284 22.171360 -43.374588 32.537117 40.648476 6.534555 -79.711983 -3.934001 4.449361 18.473841 22.393064 9.054493 1.384431 -2.177356 -19.008181 16.302158 -0.107205 -3.390927 0.107309 17.783552 -1.057124 0.398500 5.993076 -2.516220 27.267580 
-0.334595 49.593288 -0.854935 4.932137 0.057856 -9.101558 0.000000 0.000000 0.000000 -1.016075 0.252262 6.523503 34.781826 3.769526 0.098087 -27.021511 -0.039063 0.039062 -22.726984 12.760644 24.992956 -92.512703 -5.791105 -0.323320 -46.556618 14.438655 84.130333 -19.676195 -19.598104 -50.442108 -1.945719 -12.209433 24.165834 77.427094 12.587592 74.419533 22.149691 -43.382713 32.441586 40.288929 6.449296 -79.687286 -4.404158 4.394151 18.433201 22.654034 9.057086 1.346049 -2.275481 -18.859774 16.348083 -0.672165 -3.507233 0.106339 18.283024 -1.047599 0.404841 5.801340 -2.438990 27.231821 
-0.338666 49.585300 -0.920635 5.988939 0.106081 -9.062503 0.000000 0.000000 0.000000 -2.131192 0.320160 6.552849 34.724258 3.974602 0.107840 -26.747887 -0.156250 -0.058620 -22.655390 13.068733 24.990053 -92.718895 -5.797831 -0.214371 -46.733521 14.232999 84.727249 -19.607767 -19.616270 -50.477318 -2.072386 -12.302644 24.127184 77.555923 12.535776 74.506149 21.966452 -43.126011 31.912498 39.983334 6.164218 -79.703545 -5.779630 4.538368 18.456404 22.961582 9.104003 1.329581 -2.328330 -18.857580 16.515032 -2.066616 -3.382858 0.191834 18.663094 -1.047593 0.445309 5.802224 -2.639133 27.539726 
-0.355307 49.596077 -0.953700 6.816406 0.000000 -8.994141 0.000000 0.000000 0.000000 -3.098078 0.485034 6.611586 34.658451 4.189441 0.137780 -26.484140 -0.273437 -0.048874 -22.596407 13.424728 24.995571 -92.954903 -5.872171 -0.098920 -46.828568 13.988396 85.619606 -19.609352 -19.591188 -50.508072 -2.357740 -12.387343 24.060591 77.750572 12.459179 74.648972 21.704582 -42.780422 31.296787 40.022343 5.762539 -79.743195 -6.675812 4.779344 18.497473 22.979782 9.137159 1.317229 -2.307929 -18.963373 16.592079 -2.981853 -3.108665 0.290673 18.711430 -1.057336 0.445304 5.846679 -2.769934 27.466595 
-0.366048 49.622566 -0.939087 7.044650 -0.086863 -8.769550 0.000000 0.000000 0.000000 -3.486454 0.504435 6.611587 34.552547 4.501938 0.147566 -26.512157 -0.634764 -0.136819 -22.808115 13.565796 24.994991 -93.014236 -5.948753 -0.059590 -46.774910 13.869889 86.102364 -19.704456 -19.515070 -50.503044 -2.852734 -12.407084 23.937017 77.807373 12.392920 74.694702 21.699020 -42.428677 31.042585 40.142830 5.464084 -79.813400 -6.689737 4.795421 18.478100 22.596050 9.207395 1.371023 -2.104578 -19.221577 16.608250 -2.914421 -3.031439 0.345562 18.314270 -1.005485 0.421558 6.009737 -2.994024 27.399511 
-0.360190 49.642406 -0.915128 7.091285 -0.009659 -8.486330 0.000000 0.000000 0.000000 -3.713114 0.320148 6.572381 34.458313 4.863258 0.176804 -26.584654 -1.132790 -0.361451 -23.148684 13.629253 24.995569 -93.024918 -6.105308 -0.060151 -46.527737 13.828627 86.290688 -19.656780 -19.365438 -50.594112 -3.408288 -12.438855 23.800173 77.723167 12.376819 74.647926 22.229557 -42.181438 31.666704 40.566582 5.528583 -79.847763 -6.561598 4.539757 18.413902 22.159288 9.298773 1.428011 -1.956468 -19.406090 16.679041 -2.621764 -3.167603 0.294639 17.761297 -0.956874 0.372781 6.209262 -3.146698 27.485294 
-0.351289 49.645340 -0.895453 7.072906 0.115957 -8.310549 0.000000 0.000000 0.000000 -3.834323 0.116426 6.533229 34.421654 5.078095 0.196275 -26.795057 -1.386670 -0.478848 -23.372719 13.651310 24.992373 -93.006157 -6.262341 -0.073608 -46.286968 13.821635 86.370522 -19.593433 -19.341030 -50.630669 -3.697716 -12.438295 23.735653 77.519386 12.366845 74.534378 22.936846 -42.178856 32.663532 40.985901 5.797039 -79.843521 -6.499020 4.290042 18.359375 22.002600 9.371205 1.443758 -1.937334 -19.428240 16.832699 -2.396492 -3.341751 0.199293 17.436647 -0.989026 0.368315 6.324895 -3.185163 27.599874 
-0.350550 49.636017 -0.875287 6.930489 0.154602 -8.330099 0.000000 0.000000 0.000000 -3.744461 0.048513 6.513677 34.577908 5.078095 0.196275 -27.001440 -1.435510 -0.410517 -23.406380 13.554851 24.990906 -92.878494 -6.274355 -0.135737 -46.193398 13.810812 86.301094 -19.653173 -19.592901 -50.474651 -3.654475 -12.358801 23.751303 77.296875 12.341530 74.399734 23.494057 -42.357788 33.560726 41.143051 6.068651 -79.806709 -6.354837 4.244453 18.316463 22.051266 9.308327 1.473846 -2.058115 -19.292757 16.927652 -2.147795 -3.378224 0.188412 17.257524 -1.057048 0.334311 6.377362 -3.135783 27.652691 
-0.366873 49.626572 -0.840472 6.360366 -0.019308 -8.671878 0.000000 0.000000 0.000000 -3.077608 0.242546 6.552799 34.925808 4.716777 0.167059 -26.998470 -1.201167 -0.166184 -23.171509 13.313661 24.989059 -92.681305 -6.140923 -0.241467 -46.274906 13.920600 86.290192 -19.544939 -20.007311 -50.344379 -3.208709 -12.204428 23.874449 77.081139 12.385951 74.268188 23.673143 -42.756546 34.258015 40.974426 6.414880 -79.727020 -5.749157 4.516916 18.435581 22.334318 9.122769 1.384546 -2.201914 -18.985355 16.916512 -1.492719 -3.151886 0.237324 17.219467 -1.193767 0.315024 6.337658 -2.879084 27.566936 
-0.381320 49.601048 -0.829854 5.920134 -0.134986 -9.130901 0.000000 0.000000 0.000000 -2.478849 0.436548 6.592051 35.136360 4.238271 0.127328 -26.867151 -0.937498 0.117172 -22.784321 13.012476 24.997389 -92.473694 -5.850680 -0.354018 -46.451675 14.089380 85.727165 -19.500242 -20.207748 -50.288383 -2.587827 -12.174826 24.014570 77.149269 12.524243 74.278152 23.390497 -43.168549 34.437714 40.869179 6.702991 -79.673012 -5.348678 4.828561 18.552702 22.692167 8.900520 1.318996 -2.415912 -18.640009 16.861057 -1.276215 -2.932931 0.297565 17.590675 -1.340272 0.305519 6.145965 -2.544888 27.413057 
-0.383347 49.574749 -0.844777 5.724147 -0.125201 -9.531290 0.000000 0.000000 0.000000 -2.090056 0.504445 6.601822 35.113956 3.828119 0.098090 -26.741518 -0.703117 0.263652 -22.280722 12.875383 24.993378 -92.384804 -5.724096 -0.387743 -46.603527 14.196879 85.336090 -19.440767 -20.344196 -50.262424 -1.941229 -12.270425 24.161898 77.405350 12.659912 74.388878 22.860226 -43.467182 34.143097 40.841908 6.817119 -79.663589 -5.174441 4.958243 18.602268 22.920828 8.761721 1.274123 -2.546489 -18.300724 16.771555 -1.433057 -2.875852 0.342196 18.183542 -1.396462 0.313690 5.892747 -2.277914 27.396877 
-0.381876 49.562263 -0.873287 5.669205 -0.086617 -9.765644 0.000000 0.000000 0.000000 -1.867775 0.485053 6.592056 34.965858 3.603513 0.078584 -26.584303 -0.341789 0.380853 -21.937645 12.902172 24.997250 -92.375069 -5.743545 -0.387912 -46.668037 14.155652 85.168625 -19.295183 -20.384857 -50.310741 -1.540953 -12.486320 24.246859 77.809090 12.815606 74.599129 22.194784 -43.552929 33.280296 40.825157 6.737040 -79.673241 -5.213155 5.025920 18.634069 23.119930 8.699021 1.230646 -2.624781 -18.149216 16.750099 -1.684796 -2.873078 0.330611 18.588123 -1.457711 0.364118 5.747191 -2.099317 27.153666 
-0.370144 49.572052 -0.892588 5.773119 -0.009628 -9.638674 0.000000 0.000000 0.000000 -1.931422 0.358968 6.552911 34.752510 3.759760 0.098086 -26.426079 -0.048827 0.351562 -22.119881 13.250462 24.993393 -92.621704 -6.004542 -0.263699 -46.548317 14.101768 85.048004 -19.187925 -20.217405 -50.418358 -1.764595 -12.514115 24.188890 77.943535 12.802024 74.674133 21.905811 -43.451385 32.579666 40.942932 6.559504 -79.715172 -5.438179 4.899971 18.585680 23.140539 8.787275 1.247892 -2.562163 -18.252838 16.702398 -1.871237 -3.021196 0.305172 18.675570 -1.337397 0.374186 5.734617 -2.193209 27.105736 
-0.360383 49.604836 -0.889326 5.869141 0.000000 -9.287109 0.000000 0.000000 0.000000 -2.074054 0.223151 6.533267 34.520908 4.140615 0.127327 -26.328222 -0.048828 0.117187 -22.702271 13.495253 24.995275 -92.750465 -6.217844 -0.201172 -46.343235 13.999372 84.731850 -19.216818 -19.752661 -50.582726 -2.314494 -12.411263 24.063688 77.822311 12.634500 74.637589 22.061596 -43.284061 32.353672 41.101646 6.351265 -79.772522 -5.526157 4.714692 18.514217 22.932663 8.957705 1.310789 -2.398183 -18.588333 16.617111 -1.840844 -3.136429 0.252189 18.526060 -1.233041 0.385179 5.791531 -2.424005 27.237013 
